<?xml version="1.0" encoding="UTF-8"?>
<svg version="1.1" xmlns="http://www.w3.org/2000/svg" width="512" height="512">
<path d="M0 0 C1.56571941 -0.00572162 3.13143467 -0.01269269 4.69714355 -0.02079773 C8.89500815 -0.03853223 13.09266155 -0.03760031 17.29055214 -0.03185534 C20.80984067 -0.02873921 24.32909003 -0.03488158 27.84837294 -0.04089409 C36.14894931 -0.05486845 44.44942256 -0.05343331 52.75 -0.04199219 C61.29357256 -0.03047601 69.83683248 -0.04466128 78.38036394 -0.07138866 C85.74552881 -0.09356084 93.1105956 -0.10018086 100.47579145 -0.09431225 C104.86223843 -0.09095017 109.24848431 -0.09330972 113.63490295 -0.11056328 C117.75231243 -0.12605825 121.86925726 -0.12204899 125.98664856 -0.10325813 C127.49265455 -0.09958147 128.99869524 -0.10265376 130.50466919 -0.11314392 C132.56846169 -0.1264183 134.63072936 -0.11475363 136.69445801 -0.09715271 C137.84619759 -0.09694343 138.99793716 -0.09673414 140.18457794 -0.09651852 C147.40114689 0.95406737 152.50567998 4.68569288 157.54489136 9.82469177 C158.08526098 10.359527 158.62563061 10.89436223 159.18237507 11.44540459 C160.97280288 13.22232628 162.7487145 15.01305228 164.52490234 16.80419922 C165.81262737 18.08813755 167.10120949 19.37121675 168.39057922 20.65350342 C171.87669167 24.12569346 175.350162 27.61027749 178.82104635 31.09768176 C182.4586419 34.74915683 186.10641629 38.39043909 189.75271606 42.03321838 C195.8708181 48.14862147 201.98079728 54.27204911 208.0859375 60.40039062 C215.14419445 67.48528495 222.21483369 74.55763298 229.29228485 81.62334961 C236.10483384 88.42512227 242.90887371 95.23534474 249.70895767 102.04957771 C252.60173666 104.94811472 255.49741265 107.84371129 258.39544296 110.7369976 C261.80540496 114.1421895 265.20784013 117.5547284 268.60458946 120.97309875 C269.85248886 122.22656457 271.10294606 123.47748987 272.35612297 124.7256794 C274.06548739 126.42909217 275.76534981 128.14145687 277.46310425 129.85643005 C277.96153583 130.34885159 278.45996742 130.84127313 278.97350299 131.34861654 C283.32076765 135.77645389 284.86607198 139.50799989 284.89770508 145.64990234 C284.90723709 146.67123764 284.9167691 147.69257294 284.92658997 148.74485779 C284.92522285 150.38406944 284.92522285 150.38406944 284.92382812 152.05639648 C284.92811325 153.18928604 284.93239838 154.3221756 284.93681335 155.48939514 C284.94254977 157.88240898 284.943062 160.27544025 284.9387207 162.66845703 C284.93556138 166.32476614 284.95902738 169.98026551 284.984375 173.63647461 C284.98664815 175.96394755 284.98735142 178.29142266 284.98632812 180.61889648 C284.99553787 181.70968002 285.00474762 182.80046356 285.01423645 183.92430115 C284.98041945 189.48639113 284.84336251 193.64200918 281.62304688 198.40405273 C277.52275401 202.28854071 273.91347653 204.14475881 268.31054688 204.77905273 C263.72184527 204.31240511 260.38202864 203.07619847 256.62304688 200.40405273 C252.38151211 195.07494495 251.49713151 191.24599352 251.52539062 184.54858398 C251.52751305 183.55612923 251.52751305 183.55612923 251.52967834 182.54362488 C251.53526692 180.43455446 251.54781723 178.32559096 251.56054688 176.21655273 C251.56556336 174.78491364 251.57012601 173.35327289 251.57421875 171.92163086 C251.58523257 168.41573685 251.60248933 164.90990523 251.62304688 161.40405273 C250.93416885 161.41293518 250.24529083 161.42181763 249.53553772 161.43096924 C242.96279772 161.51196185 236.39020201 161.57243896 229.81707096 161.61130142 C226.43975669 161.63195447 223.0628632 161.65984849 219.68579102 161.70581055 C183.75101175 162.15874196 183.75101175 162.15874196 168.12304688 153.59155273 C167.4670752 153.24825928 166.81110352 152.90496582 166.13525391 152.55126953 C160.84128381 149.70384464 156.16216898 146.34514795 151.62304688 142.40405273 C150.61242187 141.64092773 149.60179687 140.87780273 148.56054688 140.09155273 C133.17420703 126.01468862 124.57992107 105.88704441 123.448349 85.2121582 C123.39404998 81.87325097 123.39752805 78.54012688 123.42773438 75.20092773 C123.43056427 73.99712463 123.43339417 72.79332153 123.43630981 71.55303955 C123.44739785 67.75327098 123.47248081 63.95374862 123.49804688 60.15405273 C123.50809139 57.55900408 123.51721465 54.96395169 123.52539062 52.36889648 C123.54729979 46.04719959 123.58066202 39.72564376 123.62304688 33.40405273 C105.837223 33.46472347 88.05155598 33.54231891 70.26589584 33.63976765 C62.00670401 33.68463063 53.74755437 33.7240669 45.48828125 33.75048828 C38.28499251 33.7735456 31.08183841 33.80702915 23.87865663 33.85275429 C20.06869945 33.87658284 16.25887476 33.8953792 12.44884491 33.90166664 C8.85365454 33.90776489 5.25880268 33.92793272 1.66373825 33.95832825 C-0.26621801 33.97114533 -2.19625367 33.96955158 -4.12625122 33.96733093 C-18.68695062 34.12235518 -31.49007066 37.5238938 -42.25195312 47.71655273 C-51.38628452 57.43809115 -55.53136674 69.20199805 -55.51498413 82.38656616 C-55.51921605 83.76354154 -55.51921605 83.76354154 -55.52353346 85.1683346 C-55.53188154 88.25131035 -55.53321789 91.3342502 -55.53466797 94.41723633 C-55.53933597 96.62481284 -55.54447951 98.83238839 -55.55006409 101.03996277 C-55.56134709 105.79752894 -55.56978024 110.55508883 -55.57618332 115.31266403 C-55.58685659 122.83376149 -55.60709901 130.35481385 -55.62930298 137.87588501 C-55.65984135 148.41944927 -55.68907126 158.96301485 -55.71484375 169.5065918 C-55.71648193 170.17564425 -55.71812011 170.84469671 -55.71980794 171.53402348 C-55.74609565 182.37730666 -55.76473841 193.22059324 -55.78143565 204.06389479 C-55.79885944 215.19922946 -55.82789639 226.33450443 -55.86632502 237.46978819 C-55.88741575 243.72082834 -55.90285526 249.9717732 -55.90513229 256.2228508 C-55.90727618 262.1014053 -55.92311921 267.97976131 -55.94952202 273.85825539 C-55.95672587 276.0165542 -55.95881074 278.17487703 -55.95541954 280.3331852 C-55.95153111 283.27821665 -55.96595939 286.22261217 -55.98495483 289.16757202 C-55.97666029 290.45045878 -55.97666029 290.45045878 -55.96819818 291.75926244 C-56.03103438 297.39787093 -56.90937965 301.7606725 -60.91210938 306.04858398 C-67.11066639 310.788657 -71.60398647 311.27875998 -79.37695312 310.40405273 C-83.45119235 308.7573219 -85.642961 306.58886752 -87.94036961 302.88037586 C-89.76679108 298.46070159 -89.79761863 294.8339328 -89.76463318 290.10319519 C-89.77271149 288.71079706 -89.77271149 288.71079706 -89.78095299 287.29026967 C-89.79524513 284.18377487 -89.7881254 281.07770545 -89.78100586 277.97119141 C-89.78670914 275.74175677 -89.79367323 273.51232506 -89.80180359 271.28289795 C-89.8197648 265.22647781 -89.81855977 259.17020236 -89.8128612 253.11376357 C-89.80977046 248.04995536 -89.81586129 242.98617498 -89.82189995 237.92237073 C-89.83676008 225.27967861 -89.83312403 212.63707345 -89.82103664 199.99438784 C-89.81112958 189.04865954 -89.82400079 178.1031009 -89.84797084 167.15739878 C-89.87244796 155.89427867 -89.88154913 144.63123518 -89.87531811 133.36808187 C-89.87195905 127.05464757 -89.87429223 120.74135301 -89.89156914 114.42793846 C-89.90713508 108.47953257 -89.90297624 102.53144726 -89.88426399 96.58305359 C-89.8806032 94.41162486 -89.88361237 92.24017189 -89.89414978 90.06876564 C-89.96393835 74.48504626 -89.23711458 58.90025156 -81.56445312 44.90405273 C-81.22115967 44.24808105 -80.87786621 43.59210938 -80.52416992 42.91625977 C-77.67674503 37.62228967 -74.31804834 32.94317484 -70.37695312 28.40405273 C-69.61382812 27.39342773 -68.85070312 26.38280273 -68.06445312 25.34155273 C-50.15473966 5.76581941 -25.56837559 -0.08607132 0 0 Z M156.62304688 57.40405273 C156.54773135 61.31428023 156.49390836 65.22421505 156.45825195 69.13500977 C156.43611257 71.10374841 156.39795335 73.07228635 156.359375 75.04077148 C156.24170206 90.49515148 159.58532501 103.38968941 170.43554688 114.77905273 C179.67851342 123.52314852 191.04132637 128.55397782 203.79492188 128.50170898 C204.47733948 128.50029404 205.15975708 128.49887909 205.862854 128.49742126 C208.03296371 128.49184357 210.20296858 128.47929527 212.37304688 128.46655273 C213.8483058 128.46153485 215.32356634 128.45697244 216.79882812 128.45288086 C220.40693486 128.44188148 224.01498063 128.42463226 227.62304688 128.40405273 C223.6395514 123.63236799 219.48477537 119.12089805 215.08276367 114.734375 C214.45926529 114.1091243 213.83576691 113.4838736 213.19337463 112.8396759 C211.15549349 110.79743381 209.11402504 108.75882316 207.07226562 106.72045898 C205.64819471 105.29571389 204.22427223 103.87082043 202.80049133 102.44578552 C199.82914646 99.47297194 196.85601399 96.50196106 193.8815918 93.53222656 C190.06026128 89.7166241 186.2434794 85.8965079 182.42799664 82.07505894 C179.49513221 79.13859311 176.55990533 76.20449811 173.62394142 73.27113152 C172.21452139 71.86238032 170.80584863 70.4528811 169.39792442 69.04263496 C167.4398033 67.08199089 165.47853446 65.12455256 163.51635742 63.16796875 C162.9309317 62.5805188 162.34550598 61.99306885 161.74234009 61.38781738 C159.54329219 58.65990334 159.54329219 58.65990334 156.62304688 57.40405273 Z " fill="#000000" transform="translate(126.376953125,25.595947265625)"/>
<path d="M0 0 C1.36779331 -0.00379117 2.73558277 -0.00929775 4.10336304 -0.01637268 C7.78930686 -0.03023821 11.47477926 -0.0192222 15.16069651 -0.00266147 C19.03266092 0.01127355 22.90460031 0.0047196 26.77658081 0.00120544 C33.27430751 -0.0014894 39.7718487 0.01191834 46.26953125 0.03515625 C53.76662892 0.0617839 61.26341707 0.06350329 68.76054585 0.05176789 C75.9954116 0.04096649 83.2301661 0.04719421 90.46502304 0.06132317 C93.53421555 0.06706028 96.60332605 0.06701836 99.67251968 0.06225777 C103.28914889 0.05746409 106.90544169 0.06768766 110.52200699 0.08921242 C112.4717473 0.09737445 114.42153182 0.09095531 116.37127686 0.08401489 C126.26161793 0.16741883 132.99650041 1.73954793 140.37841797 8.59936523 C146.04388434 14.71706396 147.28945922 20.76771662 147.28730774 28.86955261 C147.29098443 29.6139103 147.29466112 30.35826799 147.29844922 31.12518197 C147.30946685 33.62073379 147.31332664 36.11624393 147.31713867 38.61181641 C147.32340478 40.40073783 147.33005172 42.18965796 147.33705139 43.97857666 C147.35807695 49.85476782 147.3684525 55.7309592 147.37841797 61.60717773 C147.38246611 63.63147813 147.38658305 65.65577839 147.39076805 67.68007851 C147.40981656 77.19108237 147.4240482 86.70207848 147.43238002 96.21309775 C147.44215099 107.18526705 147.46846834 118.15723453 147.50888091 129.12933272 C147.53905884 137.61441123 147.5538505 146.09943195 147.55716103 154.58456308 C147.55950963 159.65031505 147.5684454 164.71585133 147.59362221 169.78154564 C147.61693718 174.54961847 147.62112237 179.31733411 147.61086082 184.08544922 C147.61036619 185.83130902 147.61666538 187.57718661 147.63041687 189.32299232 C147.70945592 199.95588625 147.01172887 207.74962922 140.95263672 216.75170898 C134.39953064 223.15919049 127.50198029 225.61481773 118.43634033 225.64215088 C117.2981485 225.64786102 116.15995667 225.65357117 114.98727417 225.65945435 C113.74768951 225.6605722 112.50810486 225.66169006 111.23095703 225.6628418 C109.91819794 225.6678067 108.60543884 225.67277161 107.25289917 225.67788696 C103.65766478 225.69097447 100.06244903 225.69744884 96.46719456 225.70189762 C94.21794194 225.7048344 91.96869435 225.70894035 89.71944427 225.71340179 C82.67308999 225.72706746 75.62674729 225.73673852 68.58038068 225.74060369 C60.46307474 225.74508152 52.34593744 225.76262051 44.22868276 225.79160428 C37.94313951 225.81326391 31.65764355 225.82331025 25.3720634 225.8246448 C21.62315167 225.82568982 17.87439866 225.8315326 14.12552643 225.84946442 C9.93921273 225.86909999 5.75324931 225.86463912 1.56689453 225.8581543 C0.3354068 225.86736908 -0.89608093 225.87658386 -2.16488647 225.88607788 C-12.80879798 225.83450845 -20.9525392 223.87111986 -28.85986328 216.50170898 C-33.70544471 210.38097455 -35.16194851 204.59639447 -35.12728882 196.90008545 C-35.13181993 196.15472448 -35.13635104 195.4093635 -35.14101946 194.64141583 C-35.15363692 192.15435341 -35.15204482 189.66751072 -35.15039062 187.18041992 C-35.1563776 185.3928245 -35.16318353 183.60523166 -35.17074585 181.81764221 C-35.18839736 176.96829331 -35.19310092 172.11901503 -35.19437742 167.26963711 C-35.19580023 164.23725846 -35.20007233 161.2048977 -35.20537186 158.1725235 C-35.22387038 147.5857886 -35.23204282 136.99910404 -35.23046875 126.41235352 C-35.22926789 116.55688978 -35.25035992 106.70164523 -35.28195608 96.84623694 C-35.30814402 88.37468176 -35.31883497 79.90319805 -35.31755793 71.43160272 C-35.31704897 66.37648069 -35.32269531 61.32155344 -35.34391403 56.26647186 C-35.36333844 51.50902247 -35.36339219 46.75195279 -35.34888077 41.99448967 C-35.34679668 40.25389232 -35.35146962 38.51327094 -35.36360168 36.77271461 C-35.43405018 25.96052512 -35.29921766 16.12214525 -27.73486328 7.62670898 C-19.670565 0.38594667 -10.39052258 -0.07968956 0 0 Z M-1.85986328 33.50170898 C-1.85986328 43.73170898 -1.85986328 53.96170898 -1.85986328 64.50170898 C36.42013672 64.50170898 74.70013672 64.50170898 114.14013672 64.50170898 C114.14013672 54.27170898 114.14013672 44.04170898 114.14013672 33.50170898 C75.86013672 33.50170898 37.58013672 33.50170898 -1.85986328 33.50170898 Z M-1.85986328 97.50170898 C-1.85986328 128.85170898 -1.85986328 160.20170898 -1.85986328 192.50170898 C36.42013672 192.50170898 74.70013672 192.50170898 114.14013672 192.50170898 C114.14013672 161.15170898 114.14013672 129.80170898 114.14013672 97.50170898 C75.86013672 97.50170898 37.58013672 97.50170898 -1.85986328 97.50170898 Z " fill="#000000" transform="translate(327.85986328125,260.498291015625)"/>
<path d="M0 0 C4.47870656 2.15937638 7.18198188 4.92952939 10 9 C11.15927528 12.47782583 11.11313066 15.18803257 11.09765625 18.85546875 C11.0962413 19.51710526 11.09482635 20.17874176 11.09336853 20.86042786 C11.08777996 22.96949828 11.07522965 25.07846177 11.0625 27.1875 C11.05748352 28.61913909 11.05292087 30.05077985 11.04882812 31.48242188 C11.0378143 34.98831588 11.02055755 38.4941475 11 42 C12.27875 41.95359375 13.5575 41.9071875 14.875 41.859375 C16.58330979 41.82182973 18.29164508 41.78543255 20 41.75 C20.83917969 41.71648437 21.67835938 41.68296875 22.54296875 41.6484375 C28.49618436 41.55613958 33.08461627 42.49990653 38 46 C42.16914657 51.23815851 43.54727424 55.32325422 43 62 C41.19007388 67.27239347 38.76547618 70.94520757 34 74 C31.34303242 74.88565586 29.71809917 75.1450262 26.98754883 75.20532227 C25.7866436 75.2352401 25.7866436 75.2352401 24.56147766 75.26576233 C23.70201035 75.28247482 22.84254303 75.29918732 21.95703125 75.31640625 C21.0734343 75.33718735 20.18983734 75.35796844 19.27946472 75.37937927 C16.45722215 75.44475754 13.63488665 75.50370528 10.8125 75.5625 C8.89907894 75.60569637 6.98566727 75.64931102 5.07226562 75.69335938 C0.38160563 75.80042695 -4.30914783 75.90172752 -9 76 C-9.495 77.485 -9.495 77.485 -10 79 C-9.27852783 79.26337158 -8.55705566 79.52674316 -7.8137207 79.7980957 C-2.86290497 81.91287799 1.38876245 85.14929936 5.8125 88.1875 C6.77220703 88.83525391 7.73191406 89.48300781 8.72070312 90.15039062 C24.74351187 101.09839851 24.74351187 101.09839851 28.4375 109.1875 C28.91058594 110.19167969 29.38367188 111.19585937 29.87109375 112.23046875 C33.40165989 120.89196145 33.31607288 130.66825153 29.9375 139.375 C27.3645362 144.80279724 23.91058475 151.47142171 18.01318359 153.77661133 C15.39503449 154.91808709 13.87552426 155.82180678 12 158 C10.91525562 163.25424287 11.10222163 168.47888317 11.25 173.8125 C11.56651099 191.31243199 11.56651099 191.31243199 7 198 C2.11883485 202.64305954 -1.96700606 203.35728013 -8.49609375 203.28125 C-13.45046555 202.7247527 -16.13925306 199.97706409 -19.3125 196.375 C-22.13048011 192.40895393 -22.13307248 189.53691736 -22.09765625 184.8046875 C-22.0962413 184.09724396 -22.09482635 183.38980042 -22.09336853 182.66091919 C-22.087766 180.39890331 -22.07521318 178.13698602 -22.0625 175.875 C-22.05748532 174.34244935 -22.05292236 172.80989714 -22.04882812 171.27734375 C-22.03779577 167.51819112 -22.02052952 163.75911228 -22 160 C-22.9446814 160.03927612 -22.9446814 160.03927612 -23.90844727 160.0793457 C-26.79287244 160.18399785 -29.67689724 160.24853794 -32.5625 160.3125 C-34.0484668 160.3753418 -34.0484668 160.3753418 -35.56445312 160.43945312 C-42.44820393 160.55380114 -45.87506858 159.6703004 -51 155 C-54.56774315 150.05119499 -54.83213877 144.89977035 -54 139 C-52.19954565 133.63932519 -48.93128259 130.61422397 -44 128 C-40.66750817 127.41709408 -37.38520241 127.39518697 -34.0078125 127.390625 C-33.06187225 127.37408875 -32.11593201 127.35755249 -31.1413269 127.34051514 C-28.13581788 127.29213685 -25.13081448 127.27068662 -22.125 127.25 C-20.08070387 127.22183184 -18.03643119 127.19190323 -15.9921875 127.16015625 C-10.9948333 127.08638044 -5.99775813 127.03674356 -1 127 C-2.34912344 122.95262969 -5.00245239 121.75900625 -8.44921875 119.578125 C-9.78587327 118.70843473 -11.12245959 117.83863963 -12.45898438 116.96875 C-14.56547333 115.61183775 -16.67418731 114.25851665 -18.78491211 112.90820312 C-36.15526019 101.76040523 -36.15526019 101.76040523 -40.3125 92.75 C-40.61800781 92.10546875 -40.92351562 91.4609375 -41.23828125 90.796875 C-44.57988903 82.91410792 -44.38230219 71.38371782 -41.3125 63.375 C-40.58787868 61.89316193 -39.81984822 60.43135217 -39 59 C-38.66097656 58.36964844 -38.32195312 57.73929688 -37.97265625 57.08984375 C-34.62358249 51.66696631 -29.44081545 48.16819165 -24 45 C-23.34 45 -22.68 45 -22 45 C-22.02094727 44.00669678 -22.04189453 43.01339355 -22.06347656 41.98999023 C-22.13626804 38.27952682 -22.18194048 34.5691256 -22.21972656 30.8581543 C-22.23975347 29.25680909 -22.26698354 27.6555362 -22.30175781 26.05444336 C-22.35067419 23.74314463 -22.37305711 21.43281846 -22.390625 19.12109375 C-22.41127014 18.41351425 -22.43191528 17.70593475 -22.45318604 16.97691345 C-22.45564603 11.43868657 -21.02614668 8.46401688 -18 4 C-12.81900198 -1.05147307 -6.84366817 -0.93066367 0 0 Z " fill="#000000" transform="translate(219,176)"/>
<path d="M0 0 C4.74383917 1.6691286 7.22222634 3.83333952 10 8 C11.91172034 12.02169317 12.4235845 15.71218318 12.875 20.125 C14.63936608 34.74301382 20.37332238 44.67161196 31.546875 54.2109375 C41.86559727 61.73637508 53.21003123 63.30695025 65.63500977 63.23950195 C67.32945724 63.24252319 67.32945724 63.24252319 69.05813599 63.24560547 C71.49707864 63.24913565 73.93603047 63.2484029 76.37497139 63.24382973 C80.23836378 63.23821298 84.10145862 63.24743317 87.96482849 63.2610321 C98.94425868 63.29806881 109.92358556 63.31695831 120.90307617 63.30541992 C127.63094439 63.29852423 134.35832812 63.31784217 141.08613396 63.35130882 C143.64451863 63.35925381 146.20294935 63.3579982 148.76132393 63.34728432 C152.33947706 63.33293902 155.9163046 63.34924759 159.49438477 63.37231445 C160.54551956 63.36054672 161.59665436 63.34877899 162.67964172 63.33665466 C169.34689501 63.42078641 173.86284513 64.62448174 179 69 C182.6309411 73.49373898 182.50234094 77.53543808 182.3515625 83.12109375 C181.7170751 88.31684059 179.21170271 90.879175 175.5 94.3125 C171.7647562 96.83378956 168.62966626 97.12467036 164.18487549 97.14044189 C163.21804337 97.14615204 162.25121124 97.15186218 161.25508118 97.15774536 C159.6733033 97.15942215 159.6733033 97.15942215 158.05957031 97.16113281 C156.94351913 97.16609772 155.82746796 97.17106262 154.67759705 97.17617798 C150.97776676 97.19080376 147.27797947 97.1976052 143.578125 97.203125 C140.99900309 97.20887967 138.41988118 97.21463736 135.84075928 97.22039795 C131.11602213 97.22956775 126.39130206 97.23586512 121.66655755 97.2388947 C114.75088908 97.2433549 107.83542028 97.26080567 100.91981244 97.2898953 C94.90238769 97.31431185 88.88505562 97.32184873 82.8675766 97.32357025 C80.32415435 97.32657773 77.78073254 97.334541 75.23734283 97.34775543 C47.71475429 97.4804486 23.99089975 94.31549667 2.859375 74.88671875 C-11.97499902 59.83419218 -21.0133419 40.22028118 -21.3125 19 C-21.34150391 18.31421875 -21.37050781 17.6284375 -21.40039062 16.921875 C-21.46434762 11.76595732 -20.21783053 8.96807153 -17 5 C-11.3010612 -0.0204937 -7.46345948 -0.63152349 0 0 Z " fill="#000000" transform="translate(58,389)"/>
</svg>
