<svg width="18" height="18" viewBox="0 0 18 18" fill="none" xmlns="http://www.w3.org/2000/svg">
<path d="M8.75 0C9.16421 0 9.5 0.335786 9.5 0.75C9.5 1.16421 9.16421 1.5 8.75 1.5C4.74594 1.5 1.5 4.74594 1.5 8.75C1.5 12.7541 4.74594 16 8.75 16C9.16421 16 9.5 16.3358 9.5 16.75C9.5 17.1642 9.16421 17.5 8.75 17.5C3.91751 17.5 0 13.5825 0 8.75C0 3.91751 3.91751 0 8.75 0Z" fill="#011530"/>
<path d="M13.2197 6.28033C12.9268 5.98744 12.9268 5.51256 13.2197 5.21967C13.5126 4.92678 13.9874 4.92678 14.2803 5.21967L17.2803 8.21967C17.5732 8.51256 17.5732 8.98744 17.2803 9.28033L14.2803 12.2803C13.9874 12.5732 13.5126 12.5732 13.2197 12.2803C12.9268 11.9874 12.9268 11.5126 13.2197 11.2197L14.9393 9.5H6.75C6.33579 9.5 6 9.16421 6 8.75C6 8.33579 6.33579 8 6.75 8H14.9393L13.2197 6.28033Z" fill="#011530"/>
</svg>
