<?xml version="1.0" encoding="UTF-8"?>
<svg version="1.1" xmlns="http://www.w3.org/2000/svg" width="80" height="80">
<path d="M0 0 C6.084375 -0.350625 12.16875 -0.70125 18.4375 -1.0625 C20.31880615 -1.21726807 22.2001123 -1.37203613 24.13842773 -1.53149414 C32.81440703 -1.95863577 39.45093137 -0.68824549 46.43606567 4.70462036 C53.65035163 11.26768292 56.87100765 17.35622805 57.58203125 27.11791992 C57.71742722 33.31101633 57.41545215 39.36718841 57.0625 45.5625 C56.711875 54.286875 56.36125 63.01125 56 72 C37.52 72 19.04 72 0 72 C0 48.24 0 24.48 0 0 Z " fill="#FEFEFE" transform="translate(12,4)"/>
<path d="M0 0 C6.084375 -0.350625 12.16875 -0.70125 18.4375 -1.0625 C20.31880615 -1.21726807 22.2001123 -1.37203613 24.13842773 -1.53149414 C32.81440703 -1.95863577 39.45093137 -0.68824549 46.43606567 4.70462036 C53.65035163 11.26768292 56.87100765 17.35622805 57.58203125 27.11791992 C57.71742722 33.31101633 57.41545215 39.36718841 57.0625 45.5625 C56.711875 54.286875 56.36125 63.01125 56 72 C37.52 72 19.04 72 0 72 C0 48.24 0 24.48 0 0 Z M2 2 C2 24.44 2 46.88 2 70 C19.16 70 36.32 70 54 70 C54 53.5 54 37 54 20 C48.06 20 42.12 20 36 20 C36 14.06 36 8.12 36 2 C24.78 2 13.56 2 2 2 Z " fill="#4788C6" transform="translate(12,4)"/>
<path d="M0 0 C2.0625 0.4375 2.0625 0.4375 4 1 C3.93039063 2.17755859 3.93039063 2.17755859 3.859375 3.37890625 C3.49652316 12.48760992 3.49652316 12.48760992 8 20 C10.38289067 20.65603562 12.50804547 20.87228013 14.9765625 20.9296875 C17 21 17 21 19 22 C18.67 23.32 18.34 24.64 18 26 C15.8125 26.6875 15.8125 26.6875 13 27 C12.24460937 26.51015625 11.48921875 26.0203125 10.7109375 25.515625 C7.40800601 23.66902929 5.54866233 23.73297512 1.8125 24.0625 C0.76707031 24.13597656 -0.27835938 24.20945312 -1.35546875 24.28515625 C-4.12382551 24.71956008 -4.12382551 24.71956008 -5.27734375 26.9453125 C-5.51582031 27.62335937 -5.75429688 28.30140625 -6 29 C-7.375 30.8125 -7.375 30.8125 -9 32 C-11.1875 31.6875 -11.1875 31.6875 -13 31 C-12.62118922 28.25362183 -12.22167713 27.19950942 -10.125 25.3125 C-8 24 -8 24 -5 23 C-0.68337374 17.05200662 -0.653425 10.71461617 -0.95703125 3.625 C-0.97121094 2.75875 -0.98539063 1.8925 -1 1 C-0.67 0.67 -0.34 0.34 0 0 Z " fill="#5B95CD" transform="translate(37,28)"/>
<path d="M0 0 C5.27002208 4.39168507 10.35302051 8.9426379 15 14 C15 14.33 15 14.66 15 15 C10.05 15 5.1 15 0 15 C0 10.05 0 5.1 0 0 Z " fill="#D8EBFB" transform="translate(50,7)"/>
<path d="M0 0 C-2 2 -2 2 -5 2.375 C-5.99 2.58125 -6.98 2.7875 -8 3 C-9.25827123 4.84982472 -9.25827123 4.84982472 -10 7 C-11.375 8.8125 -11.375 8.8125 -13 10 C-15.1875 9.6875 -15.1875 9.6875 -17 9 C-16.63450574 6.35016664 -16.23871836 5.22166705 -14.25 3.375 C-9.36435187 0.38932614 -5.75111825 -0.22553405 0 0 Z " fill="#72A3D4" transform="translate(41,50)"/>
<path d="M0 0 C1.6254308 0.14095064 3.25034051 0.28792087 4.875 0.4375 C5.77992187 0.51871094 6.68484375 0.59992187 7.6171875 0.68359375 C10 1 10 1 12 2 C11.67 3.32 11.34 4.64 11 6 C8.31143576 7.00821159 6.58296785 7.22736824 3.88671875 6.17578125 C1.89205069 5.16604698 -0.0646772 4.11893353 -2 3 C-1.34 2.01 -0.68 1.02 0 0 Z " fill="#508ECA" transform="translate(44,48)"/>
<path d="M0 0 C2.0625 0.4375 2.0625 0.4375 4 1 C4.28571429 8.42857143 4.28571429 8.42857143 2 12 C0 11 0 11 -1 8 C-1.125 4.375 -1.125 4.375 -1 1 C-0.67 0.67 -0.34 0.34 0 0 Z " fill="#669CD0" transform="translate(37,28)"/>
<path d="M0 0 C-2 2 -2 2 -5 2.375 C-5.99 2.58125 -6.98 2.7875 -8 3 C-9.16666667 4.91666667 -9.16666667 4.91666667 -10 7 C-12.0546875 8.12890625 -12.0546875 8.12890625 -14 9 C-13.21448343 7.68381002 -12.4213763 6.37214772 -11.625 5.0625 C-11.18414063 4.33160156 -10.74328125 3.60070313 -10.2890625 2.84765625 C-7.63562194 -0.95560855 -4.29817793 -0.07959589 0 0 Z " fill="#4E8DC9" transform="translate(41,50)"/>
<path d="M0 0 C1.37562854 1.28965176 2.70766393 2.62689293 4 4 C4 4.66 4 5.32 4 6 C2.02 6.33 0.04 6.66 -2 7 C-1.125 2.25 -1.125 2.25 0 0 Z " fill="#EEF4F9" transform="translate(38,43)"/>
<path d="M0 0 C2.97 0.495 2.97 0.495 6 1 C6 2.32 6 3.64 6 5 C3.03 4.505 3.03 4.505 0 4 C0 2.68 0 1.36 0 0 Z " fill="#9FC1E2" transform="translate(48,50)"/>
<path d="M0 0 C2.0625 2.25 2.0625 2.25 4 5 C3.75 7.3125 3.75 7.3125 3 9 C2.01 9 1.02 9 0 9 C0.66 8.67 1.32 8.34 2 8 C1.34 7.01 0.68 6.02 0 5 C-0.125 2.3125 -0.125 2.3125 0 0 Z " fill="#649BCF" transform="translate(40,41)"/>
</svg>
